<?xml version="1.0" encoding="UTF-8" standalone="no"?>
<!-- Created with Inkscape (http://www.inkscape.org/) -->

<svg
   xmlns:dc="http://purl.org/dc/elements/1.1/"
   xmlns:cc="http://creativecommons.org/ns#"
   xmlns:rdf="http://www.w3.org/1999/02/22-rdf-syntax-ns#"
   xmlns:svg="http://www.w3.org/2000/svg"
   xmlns="http://www.w3.org/2000/svg"
   xmlns:sodipodi="http://sodipodi.sourceforge.net/DTD/sodipodi-0.dtd"
   xmlns:inkscape="http://www.inkscape.org/namespaces/inkscape"
   id="svg28064"
   version="1.1"
   inkscape:version="0.48.2 r9819"
   width="340.77999"
   height="409.94038"
   xml:space="preserve"
   sodipodi:docname="algoMid.pdf"><metadata
     id="metadata28070"><rdf:RDF><cc:Work
         rdf:about=""><dc:format>image/svg+xml</dc:format><dc:type
           rdf:resource="http://purl.org/dc/dcmitype/StillImage" /><dc:title></dc:title></cc:Work></rdf:RDF></metadata><defs
     id="defs28068" /><sodipodi:namedview
     pagecolor="#ffffff"
     bordercolor="#666666"
     borderopacity="1"
     objecttolerance="10"
     gridtolerance="10"
     guidetolerance="10"
     inkscape:pageopacity="0"
     inkscape:pageshadow="2"
     inkscape:window-width="640"
     inkscape:window-height="480"
     id="namedview28066"
     showgrid="false"
     inkscape:zoom="0.57569349"
     inkscape:cx="170.39"
     inkscape:cy="204.97018"
     inkscape:window-x="0"
     inkscape:window-y="0"
     inkscape:window-maximized="0"
     inkscape:current-layer="g28072" /><g
     id="g28072"
     inkscape:groupmode="layer"
     inkscape:label="algoMid"
     transform="matrix(1.25,0,0,-1.25,0,409.94038)"><g
       id="g28074"><path
         d="m 135.422,327.952 20,0 0,-157.223 -20,0 0,157.223 z"
         style="fill:#1ce506;fill-opacity:0.411765;fill-rule:nonzero;stroke:none"
         id="path28076" /><path
         d="m 146.277,5.511 0,316.074"
         style="fill:none;stroke:#969696;stroke-opacity:1;stroke-width:0.8;stroke-linecap:butt;stroke-linejoin:miter;stroke-miterlimit:4;stroke-dasharray:none"
         id="path28078" /><path
         d="m 135.082,170.343 20,0 0,-170.344 -20,0 0,170.344 z"
         style="fill:#00acf0;fill-opacity:0.411765;fill-rule:nonzero;stroke:none"
         id="path28080" /><path
         d="m 10.098,299.757 c 0,0 -6.286,-69.715 -6.286,-76.57 l 37.145,-88.571"
         style="fill:none;stroke:#39ef00;stroke-opacity:1;stroke-width:0.8;stroke-linecap:butt;stroke-linejoin:miter;stroke-miterlimit:4;stroke-dasharray:none"
         id="path28082" /><g
         id="g28084"
         transform="matrix(-0.090164,-1,-1,0.090164,0,327.9523)"><path
           d="m 35.029,-12.541 3.19,-3.186 -11.154,3.189 11.154,3.186 -3.19,-3.189 z"
           style="fill:#39ef00;fill-opacity:1;fill-rule:evenodd;stroke:#39ef00;stroke-opacity:1;stroke-width:0.796768;stroke-linecap:butt;stroke-linejoin:miter;stroke-miterlimit:4;stroke-dasharray:none"
           id="path28086" /></g><g
         id="g28088"
         transform="matrix(-0.419355,1,1,0.419355,0,327.9523)"><path
           d="m -171.653,-34.12 2.952,-2.95 -10.327,2.951 10.328,2.952 -2.953,-2.953 z"
           style="fill:#39ef00;fill-opacity:1;fill-rule:evenodd;stroke:#39ef00;stroke-opacity:1;stroke-width:0.737755;stroke-linecap:butt;stroke-linejoin:miter;stroke-miterlimit:4;stroke-dasharray:none"
           id="path28090" /></g><path
         d="m 70.098,167.187 -66.286,57.144 46.86,65.711"
         style="fill:none;stroke:#39ef00;stroke-opacity:1;stroke-width:0.8;stroke-linecap:butt;stroke-linejoin:miter;stroke-miterlimit:4;stroke-dasharray:none"
         id="path28092" /><g
         id="g28094"
         transform="matrix(-1,0.862069,0.862069,1,0,327.9523)"><path
           d="m -113.66,-57.56 2.424,-2.422 -8.482,2.422 8.482,2.426 -2.424,-2.426 z"
           style="fill:#39ef00;fill-opacity:1;fill-rule:evenodd;stroke:#39ef00;stroke-opacity:1;stroke-width:0.605928;stroke-linecap:butt;stroke-linejoin:miter;stroke-miterlimit:4;stroke-dasharray:none"
           id="path28096" /></g><g
         id="g28098"
         transform="matrix(-0.713044,-1,-1,0.713044,0,327.9523)"><path
           d="m 7.692,-51.512 2.607,-2.605 -9.12,2.604 9.118,2.608 -2.605,-2.607 z"
           style="fill:#39ef00;fill-opacity:1;fill-rule:evenodd;stroke:#39ef00;stroke-opacity:1;stroke-width:0.651369;stroke-linecap:butt;stroke-linejoin:miter;stroke-miterlimit:4;stroke-dasharray:none"
           id="path28100" /></g><path
         d="M 82.672,261.472 3.242,224.331 88.957,216.902"
         style="fill:none;stroke:#39ef00;stroke-opacity:1;stroke-width:0.8;stroke-linecap:butt;stroke-linejoin:miter;stroke-miterlimit:4;stroke-dasharray:none"
         id="path28102" /><g
         id="g28104"
         transform="matrix(-1,-0.467626,-0.467626,1,0,327.9523)"><path
           d="m -35.082,-86.273 2.898,-2.898 -10.144,2.897 10.144,2.9 -2.898,-2.899 z"
           style="fill:#39ef00;fill-opacity:1;fill-rule:evenodd;stroke:#39ef00;stroke-opacity:1;stroke-width:0.72468;stroke-linecap:butt;stroke-linejoin:miter;stroke-miterlimit:4;stroke-dasharray:none"
           id="path28106" /></g><g
         id="g28108"
         transform="matrix(-1,0.0866667,0.0866667,1,0,327.9523)"><path
           d="m -89.878,-102.57 3.189,-3.19 -11.157,3.189 11.159,3.189 -3.191,-3.188 z"
           style="fill:#39ef00;fill-opacity:1;fill-rule:evenodd;stroke:#39ef00;stroke-opacity:1;stroke-width:0.797012;stroke-linecap:butt;stroke-linejoin:miter;stroke-miterlimit:4;stroke-dasharray:none"
           id="path28110" /></g><path
         d="M 212.676,321.085 2.102,224.62 218.242,205.452"
         style="fill:none;stroke:#727272;stroke-opacity:1;stroke-width:1.6;stroke-linecap:butt;stroke-linejoin:miter;stroke-miterlimit:4;stroke-dasharray:9.6,9.6;stroke-dashoffset:0"
         id="path28112" /><path
         d="m 7.43,223.753 c 0,-2.051 -1.664,-3.711 -3.715,-3.711 -2.051,0 -3.715,1.66 -3.715,3.711 0,2.055 1.664,3.715 3.715,3.715 2.047,0 3.707,-1.652 3.715,-3.699"
         style="fill:#1ce506;fill-opacity:1;fill-rule:nonzero;stroke:none"
         id="path28114" /><path
         d="m 272.625,160.444 c 0,-2.05 -1.664,-3.714 -3.715,-3.714 -2.051,0 -3.715,1.664 -3.715,3.714 0,2.051 1.664,3.715 3.715,3.715 2.047,0 3.707,-1.656 3.715,-3.703"
         style="fill:#0092eb;fill-opacity:1;fill-rule:nonzero;stroke:none"
         id="path28116" /><path
         d="M 144.621,291.679 267.746,160.823 145.938,212.894"
         style="fill:none;stroke:#727272;stroke-opacity:1;stroke-width:1.6;stroke-linecap:butt;stroke-linejoin:miter;stroke-miterlimit:4;stroke-dasharray:9.6,9.6;stroke-dashoffset:0"
         id="path28118" /><path
         d="m 151.812,288.644 c 0,-3.121 -2.527,-5.653 -5.648,-5.653 -3.121,0 -5.648,2.532 -5.648,5.653 0,3.121 2.527,5.648 5.648,5.648 3.113,0 5.641,-2.515 5.648,-5.629"
         style="fill:#28170b;fill-opacity:1;fill-rule:nonzero;stroke:none"
         id="path28120" /><path
         d="m 150.949,212.737 c 0,-3.121 -2.527,-5.652 -5.648,-5.652 -3.121,0 -5.649,2.531 -5.649,5.652 0,3.122 2.528,5.649 5.649,5.649 3.113,0 5.64,-2.516 5.648,-5.629"
         style="fill:#28170b;fill-opacity:1;fill-rule:nonzero;stroke:none"
         id="path28122" /></g></g></svg>