<?xml version="1.0" encoding="UTF-8" standalone="no"?>
<!-- Created with Inkscape (http://www.inkscape.org/) -->

<svg
   xmlns:dc="http://purl.org/dc/elements/1.1/"
   xmlns:cc="http://creativecommons.org/ns#"
   xmlns:rdf="http://www.w3.org/1999/02/22-rdf-syntax-ns#"
   xmlns:svg="http://www.w3.org/2000/svg"
   xmlns="http://www.w3.org/2000/svg"
   xmlns:sodipodi="http://sodipodi.sourceforge.net/DTD/sodipodi-0.dtd"
   xmlns:inkscape="http://www.inkscape.org/namespaces/inkscape"
   id="svg3281"
   version="1.1"
   inkscape:version="0.48.2 r9819"
   width="426.44626"
   height="178.41499"
   xml:space="preserve"
   sodipodi:docname="chamferVect.svg"><metadata
     id="metadata3287"><rdf:RDF><cc:Work
         rdf:about=""><dc:format>image/svg+xml</dc:format><dc:type
           rdf:resource="http://purl.org/dc/dcmitype/StillImage" /><dc:title></dc:title></cc:Work></rdf:RDF></metadata><defs
     id="defs3285" /><sodipodi:namedview
     pagecolor="#ffffff"
     bordercolor="#666666"
     borderopacity="1"
     objecttolerance="10"
     gridtolerance="10"
     guidetolerance="10"
     inkscape:pageopacity="0"
     inkscape:pageshadow="2"
     inkscape:window-width="938"
     inkscape:window-height="537"
     id="namedview3283"
     showgrid="false"
     inkscape:zoom="0.98777043"
     inkscape:cx="213.22501"
     inkscape:cy="89.206247"
     inkscape:window-x="103"
     inkscape:window-y="39"
     inkscape:window-maximized="0"
     inkscape:current-layer="g3289"
     fit-margin-top="0"
     fit-margin-left="0"
     fit-margin-right="0"
     fit-margin-bottom="0" /><g
     id="g3289"
     inkscape:groupmode="layer"
     inkscape:label="ink_ext_XXXXXX"
     transform="matrix(1.25,0,0,-1.25,0.625,177.79)"><g
       id="g3291"
       transform="scale(0.1,0.1)"><path
         d="m 141.73,0 0,1417.32"
         style="fill:none;stroke:#a0a0a0;stroke-width:10;stroke-linecap:butt;stroke-linejoin:miter;stroke-miterlimit:10;stroke-opacity:1;stroke-dasharray:10, 10;stroke-dashoffset:0"
         id="path3293"
         inkscape:connector-curvature="0" /><path
         d="m 425.195,0 0,1417.32"
         style="fill:none;stroke:#a0a0a0;stroke-width:10;stroke-linecap:butt;stroke-linejoin:miter;stroke-miterlimit:10;stroke-opacity:1;stroke-dasharray:10, 10;stroke-dashoffset:0"
         id="path3295"
         inkscape:connector-curvature="0" /><path
         d="m 708.66,0 0,1417.32"
         style="fill:none;stroke:#a0a0a0;stroke-width:10;stroke-linecap:butt;stroke-linejoin:miter;stroke-miterlimit:10;stroke-opacity:1;stroke-dasharray:10, 10;stroke-dashoffset:0"
         id="path3297"
         inkscape:connector-curvature="0" /><path
         d="m 992.125,0 0,1417.32"
         style="fill:none;stroke:#a0a0a0;stroke-width:10;stroke-linecap:butt;stroke-linejoin:miter;stroke-miterlimit:10;stroke-opacity:1;stroke-dasharray:10, 10;stroke-dashoffset:0"
         id="path3299"
         inkscape:connector-curvature="0" /><path
         d="m 1275.59,0 0,1417.32"
         style="fill:none;stroke:#a0a0a0;stroke-width:10;stroke-linecap:butt;stroke-linejoin:miter;stroke-miterlimit:10;stroke-opacity:1;stroke-dasharray:10, 10;stroke-dashoffset:0"
         id="path3301"
         inkscape:connector-curvature="0" /><path
         d="m 1559.05,0 0,1417.32"
         style="fill:none;stroke:#a0a0a0;stroke-width:10;stroke-linecap:butt;stroke-linejoin:miter;stroke-miterlimit:10;stroke-opacity:1;stroke-dasharray:10, 10;stroke-dashoffset:0"
         id="path3303"
         inkscape:connector-curvature="0" /><path
         d="m 1842.52,0 0,1417.32"
         style="fill:none;stroke:#a0a0a0;stroke-width:10;stroke-linecap:butt;stroke-linejoin:miter;stroke-miterlimit:10;stroke-opacity:1;stroke-dasharray:10, 10;stroke-dashoffset:0"
         id="path3305"
         inkscape:connector-curvature="0" /><path
         d="m 2125.98,0 0,1417.32"
         style="fill:none;stroke:#a0a0a0;stroke-width:10;stroke-linecap:butt;stroke-linejoin:miter;stroke-miterlimit:10;stroke-opacity:1;stroke-dasharray:10, 10;stroke-dashoffset:0"
         id="path3307"
         inkscape:connector-curvature="0" /><path
         d="m 2409.45,0 0,1417.32"
         style="fill:none;stroke:#a0a0a0;stroke-width:10;stroke-linecap:butt;stroke-linejoin:miter;stroke-miterlimit:10;stroke-opacity:1;stroke-dasharray:10, 10;stroke-dashoffset:0"
         id="path3309"
         inkscape:connector-curvature="0" /><path
         d="m 2692.91,0 0,1417.32"
         style="fill:none;stroke:#a0a0a0;stroke-width:10;stroke-linecap:butt;stroke-linejoin:miter;stroke-miterlimit:10;stroke-opacity:1;stroke-dasharray:10, 10;stroke-dashoffset:0"
         id="path3311"
         inkscape:connector-curvature="0" /><path
         d="m 2976.38,0 0,1417.32"
         style="fill:none;stroke:#a0a0a0;stroke-width:10;stroke-linecap:butt;stroke-linejoin:miter;stroke-miterlimit:10;stroke-opacity:1;stroke-dasharray:10, 10;stroke-dashoffset:0"
         id="path3313"
         inkscape:connector-curvature="0" /><path
         d="m 3259.84,0 0,1417.32"
         style="fill:none;stroke:#a0a0a0;stroke-width:10;stroke-linecap:butt;stroke-linejoin:miter;stroke-miterlimit:10;stroke-opacity:1;stroke-dasharray:10, 10;stroke-dashoffset:0"
         id="path3315"
         inkscape:connector-curvature="0" /><path
         d="m 0,141.734 3401.57,0"
         style="fill:none;stroke:#a0a0a0;stroke-width:10;stroke-linecap:butt;stroke-linejoin:miter;stroke-miterlimit:10;stroke-opacity:1;stroke-dasharray:10, 10;stroke-dashoffset:0"
         id="path3317"
         inkscape:connector-curvature="0" /><path
         d="m 0,425.195 3401.57,0"
         style="fill:none;stroke:#a0a0a0;stroke-width:10;stroke-linecap:butt;stroke-linejoin:miter;stroke-miterlimit:10;stroke-opacity:1;stroke-dasharray:10, 10;stroke-dashoffset:0"
         id="path3319"
         inkscape:connector-curvature="0" /><path
         d="m 0,708.66 3401.57,0"
         style="fill:none;stroke:#a0a0a0;stroke-width:10;stroke-linecap:butt;stroke-linejoin:miter;stroke-miterlimit:10;stroke-opacity:1;stroke-dasharray:10, 10;stroke-dashoffset:0"
         id="path3321"
         inkscape:connector-curvature="0" /><path
         d="m 0,992.125 3401.57,0"
         style="fill:none;stroke:#a0a0a0;stroke-width:10;stroke-linecap:butt;stroke-linejoin:miter;stroke-miterlimit:10;stroke-opacity:1;stroke-dasharray:10, 10;stroke-dashoffset:0"
         id="path3323"
         inkscape:connector-curvature="0" /><path
         d="m 0,1275.59 3401.57,0"
         style="fill:none;stroke:#a0a0a0;stroke-width:10;stroke-linecap:butt;stroke-linejoin:miter;stroke-miterlimit:10;stroke-opacity:1;stroke-dasharray:10, 10;stroke-dashoffset:0"
         id="path3325"
         inkscape:connector-curvature="0" /><path
         d="m 170.078,141.734 0,0 c 0,15.653 -12.695,28.344 -28.348,28.344 -15.652,0 -28.343,-12.691 -28.343,-28.344 0,-15.652 12.691,-28.347 28.343,-28.347 15.653,0 28.348,12.695 28.348,28.347"
         style="fill:#a0a0a0;fill-opacity:1;fill-rule:nonzero;stroke:none"
         id="path3327"
         inkscape:connector-curvature="0" /><path
         d="m 170.078,425.195 0,0 c 0,15.653 -12.695,28.348 -28.348,28.348 -15.652,0 -28.343,-12.695 -28.343,-28.348 0,-15.652 12.691,-28.343 28.343,-28.343 15.653,0 28.348,12.691 28.348,28.343"
         style="fill:#a0a0a0;fill-opacity:1;fill-rule:nonzero;stroke:none"
         id="path3329"
         inkscape:connector-curvature="0" /><path
         d="m 170.078,708.66 0,0 c 0,15.652 -12.695,28.348 -28.348,28.348 -15.652,0 -28.343,-12.696 -28.343,-28.348 0,-15.652 12.691,-28.344 28.343,-28.344 15.653,0 28.348,12.692 28.348,28.344"
         style="fill:#a0a0a0;fill-opacity:1;fill-rule:nonzero;stroke:none"
         id="path3331"
         inkscape:connector-curvature="0" /><path
         d="m 170.078,992.125 0,0 c 0,15.655 -12.695,28.345 -28.348,28.345 -15.652,0 -28.343,-12.69 -28.343,-28.345 0,-15.652 12.691,-28.344 28.343,-28.344 15.653,0 28.348,12.692 28.348,28.344"
         style="fill:#a0a0a0;fill-opacity:1;fill-rule:nonzero;stroke:none"
         id="path3333"
         inkscape:connector-curvature="0" /><path
         d="m 170.078,1275.59 0,0 c 0,15.65 -12.695,28.35 -28.348,28.35 -15.652,0 -28.343,-12.7 -28.343,-28.35 0,-15.65 12.691,-28.34 28.343,-28.34 15.653,0 28.348,12.69 28.348,28.34"
         style="fill:#a0a0a0;fill-opacity:1;fill-rule:nonzero;stroke:none"
         id="path3335"
         inkscape:connector-curvature="0" /><path
         d="m 453.543,141.734 0,0 c 0,15.653 -12.695,28.344 -28.348,28.344 -15.652,0 -28.343,-12.691 -28.343,-28.344 0,-15.652 12.691,-28.347 28.343,-28.347 15.653,0 28.348,12.695 28.348,28.347"
         style="fill:#a0a0a0;fill-opacity:1;fill-rule:nonzero;stroke:none"
         id="path3337"
         inkscape:connector-curvature="0" /><path
         d="m 453.543,425.195 0,0 c 0,15.653 -12.695,28.348 -28.348,28.348 -15.652,0 -28.343,-12.695 -28.343,-28.348 0,-15.652 12.691,-28.343 28.343,-28.343 15.653,0 28.348,12.691 28.348,28.343"
         style="fill:#a0a0a0;fill-opacity:1;fill-rule:nonzero;stroke:none"
         id="path3339"
         inkscape:connector-curvature="0" /><path
         d="m 453.543,708.66 0,0 c 0,15.652 -12.695,28.348 -28.348,28.348 -15.652,0 -28.343,-12.696 -28.343,-28.348 0,-15.652 12.691,-28.344 28.343,-28.344 15.653,0 28.348,12.692 28.348,28.344"
         style="fill:#a0a0a0;fill-opacity:1;fill-rule:nonzero;stroke:none"
         id="path3341"
         inkscape:connector-curvature="0" /><path
         d="m 453.543,992.125 0,0 c 0,15.655 -12.695,28.345 -28.348,28.345 -15.652,0 -28.343,-12.69 -28.343,-28.345 0,-15.652 12.691,-28.344 28.343,-28.344 15.653,0 28.348,12.692 28.348,28.344"
         style="fill:#a0a0a0;fill-opacity:1;fill-rule:nonzero;stroke:none"
         id="path3343"
         inkscape:connector-curvature="0" /><path
         d="m 453.543,1275.59 0,0 c 0,15.65 -12.695,28.35 -28.348,28.35 -15.652,0 -28.343,-12.7 -28.343,-28.35 0,-15.65 12.691,-28.34 28.343,-28.34 15.653,0 28.348,12.69 28.348,28.34"
         style="fill:#a0a0a0;fill-opacity:1;fill-rule:nonzero;stroke:none"
         id="path3345"
         inkscape:connector-curvature="0" /><path
         d="m 737.008,141.734 0,0 c 0,15.653 -12.696,28.344 -28.348,28.344 -15.652,0 -28.344,-12.691 -28.344,-28.344 0,-15.652 12.692,-28.347 28.344,-28.347 15.652,0 28.348,12.695 28.348,28.347"
         style="fill:#a0a0a0;fill-opacity:1;fill-rule:nonzero;stroke:none"
         id="path3347"
         inkscape:connector-curvature="0" /><path
         d="m 737.008,425.195 0,0 c 0,15.653 -12.696,28.348 -28.348,28.348 -15.652,0 -28.344,-12.695 -28.344,-28.348 0,-15.652 12.692,-28.343 28.344,-28.343 15.652,0 28.348,12.691 28.348,28.343"
         style="fill:#a0a0a0;fill-opacity:1;fill-rule:nonzero;stroke:none"
         id="path3349"
         inkscape:connector-curvature="0" /><path
         d="m 737.008,708.66 0,0 c 0,15.652 -12.696,28.348 -28.348,28.348 -15.652,0 -28.344,-12.696 -28.344,-28.348 0,-15.652 12.692,-28.344 28.344,-28.344 15.652,0 28.348,12.692 28.348,28.344"
         style="fill:#a0a0a0;fill-opacity:1;fill-rule:nonzero;stroke:none"
         id="path3351"
         inkscape:connector-curvature="0" /><path
         d="m 737.008,992.125 0,0 c 0,15.655 -12.696,28.345 -28.348,28.345 -15.652,0 -28.344,-12.69 -28.344,-28.345 0,-15.652 12.692,-28.344 28.344,-28.344 15.652,0 28.348,12.692 28.348,28.344"
         style="fill:#a0a0a0;fill-opacity:1;fill-rule:nonzero;stroke:none"
         id="path3353"
         inkscape:connector-curvature="0" /><path
         d="m 737.008,1275.59 0,0 c 0,15.65 -12.696,28.35 -28.348,28.35 -15.652,0 -28.344,-12.7 -28.344,-28.35 0,-15.65 12.692,-28.34 28.344,-28.34 15.652,0 28.348,12.69 28.348,28.34"
         style="fill:#a0a0a0;fill-opacity:1;fill-rule:nonzero;stroke:none"
         id="path3355"
         inkscape:connector-curvature="0" /><path
         d="m 1020.47,141.734 0,0 c 0,15.653 -12.69,28.344 -28.345,28.344 -15.652,0 -28.344,-12.691 -28.344,-28.344 0,-15.652 12.692,-28.347 28.344,-28.347 15.655,0 28.345,12.695 28.345,28.347"
         style="fill:#a0a0a0;fill-opacity:1;fill-rule:nonzero;stroke:none"
         id="path3357"
         inkscape:connector-curvature="0" /><path
         d="m 1020.47,425.195 0,0 c 0,15.653 -12.69,28.348 -28.345,28.348 -15.652,0 -28.344,-12.695 -28.344,-28.348 0,-15.652 12.692,-28.343 28.344,-28.343 15.655,0 28.345,12.691 28.345,28.343"
         style="fill:#a0a0a0;fill-opacity:1;fill-rule:nonzero;stroke:none"
         id="path3359"
         inkscape:connector-curvature="0" /><path
         d="m 1020.47,708.66 0,0 c 0,15.652 -12.69,28.348 -28.345,28.348 -15.652,0 -28.344,-12.696 -28.344,-28.348 0,-15.652 12.692,-28.344 28.344,-28.344 15.655,0 28.345,12.692 28.345,28.344"
         style="fill:#a0a0a0;fill-opacity:1;fill-rule:nonzero;stroke:none"
         id="path3361"
         inkscape:connector-curvature="0" /><path
         d="m 1020.47,992.125 0,0 c 0,15.655 -12.69,28.345 -28.345,28.345 -15.652,0 -28.344,-12.69 -28.344,-28.345 0,-15.652 12.692,-28.344 28.344,-28.344 15.655,0 28.345,12.692 28.345,28.344"
         style="fill:#a0a0a0;fill-opacity:1;fill-rule:nonzero;stroke:none"
         id="path3363"
         inkscape:connector-curvature="0" /><path
         d="m 1020.47,1275.59 0,0 c 0,15.65 -12.69,28.35 -28.345,28.35 -15.652,0 -28.344,-12.7 -28.344,-28.35 0,-15.65 12.692,-28.34 28.344,-28.34 15.655,0 28.345,12.69 28.345,28.34"
         style="fill:#a0a0a0;fill-opacity:1;fill-rule:nonzero;stroke:none"
         id="path3365"
         inkscape:connector-curvature="0" /><path
         d="m 1303.94,141.734 0,0 c 0,15.653 -12.7,28.344 -28.35,28.344 -15.65,0 -28.34,-12.691 -28.34,-28.344 0,-15.652 12.69,-28.347 28.34,-28.347 15.65,0 28.35,12.695 28.35,28.347"
         style="fill:#a0a0a0;fill-opacity:1;fill-rule:nonzero;stroke:none"
         id="path3367"
         inkscape:connector-curvature="0" /><path
         d="m 1303.94,425.195 0,0 c 0,15.653 -12.7,28.348 -28.35,28.348 -15.65,0 -28.34,-12.695 -28.34,-28.348 0,-15.652 12.69,-28.343 28.34,-28.343 15.65,0 28.35,12.691 28.35,28.343"
         style="fill:#a0a0a0;fill-opacity:1;fill-rule:nonzero;stroke:none"
         id="path3369"
         inkscape:connector-curvature="0" /><path
         d="m 1303.94,708.66 0,0 c 0,15.652 -12.7,28.348 -28.35,28.348 -15.65,0 -28.34,-12.696 -28.34,-28.348 0,-15.652 12.69,-28.344 28.34,-28.344 15.65,0 28.35,12.692 28.35,28.344"
         style="fill:#a0a0a0;fill-opacity:1;fill-rule:nonzero;stroke:none"
         id="path3371"
         inkscape:connector-curvature="0" /><path
         d="m 1303.94,992.125 0,0 c 0,15.655 -12.7,28.345 -28.35,28.345 -15.65,0 -28.34,-12.69 -28.34,-28.345 0,-15.652 12.69,-28.344 28.34,-28.344 15.65,0 28.35,12.692 28.35,28.344"
         style="fill:#a0a0a0;fill-opacity:1;fill-rule:nonzero;stroke:none"
         id="path3373"
         inkscape:connector-curvature="0" /><path
         d="m 1303.94,1275.59 0,0 c 0,15.65 -12.7,28.35 -28.35,28.35 -15.65,0 -28.34,-12.7 -28.34,-28.35 0,-15.65 12.69,-28.34 28.34,-28.34 15.65,0 28.35,12.69 28.35,28.34"
         style="fill:#a0a0a0;fill-opacity:1;fill-rule:nonzero;stroke:none"
         id="path3375"
         inkscape:connector-curvature="0" /><path
         d="m 1587.4,141.734 0,0 c 0,15.653 -12.69,28.344 -28.35,28.344 -15.65,0 -28.34,-12.691 -28.34,-28.344 0,-15.652 12.69,-28.347 28.34,-28.347 15.66,0 28.35,12.695 28.35,28.347"
         style="fill:#a0a0a0;fill-opacity:1;fill-rule:nonzero;stroke:none"
         id="path3377"
         inkscape:connector-curvature="0" /><path
         d="m 1587.4,425.195 0,0 c 0,15.653 -12.69,28.348 -28.35,28.348 -15.65,0 -28.34,-12.695 -28.34,-28.348 0,-15.652 12.69,-28.343 28.34,-28.343 15.66,0 28.35,12.691 28.35,28.343"
         style="fill:#a0a0a0;fill-opacity:1;fill-rule:nonzero;stroke:none"
         id="path3379"
         inkscape:connector-curvature="0" /><path
         d="m 1587.4,708.66 0,0 c 0,15.652 -12.69,28.348 -28.35,28.348 -15.65,0 -28.34,-12.696 -28.34,-28.348 0,-15.652 12.69,-28.344 28.34,-28.344 15.66,0 28.35,12.692 28.35,28.344"
         style="fill:#a0a0a0;fill-opacity:1;fill-rule:nonzero;stroke:none"
         id="path3381"
         inkscape:connector-curvature="0" /><path
         d="m 1587.4,992.125 0,0 c 0,15.655 -12.69,28.345 -28.35,28.345 -15.65,0 -28.34,-12.69 -28.34,-28.345 0,-15.652 12.69,-28.344 28.34,-28.344 15.66,0 28.35,12.692 28.35,28.344"
         style="fill:#a0a0a0;fill-opacity:1;fill-rule:nonzero;stroke:none"
         id="path3383"
         inkscape:connector-curvature="0" /><path
         d="m 1587.4,1275.59 0,0 c 0,15.65 -12.69,28.35 -28.35,28.35 -15.65,0 -28.34,-12.7 -28.34,-28.35 0,-15.65 12.69,-28.34 28.34,-28.34 15.66,0 28.35,12.69 28.35,28.34"
         style="fill:#a0a0a0;fill-opacity:1;fill-rule:nonzero;stroke:none"
         id="path3385"
         inkscape:connector-curvature="0" /><path
         d="m 1870.87,141.734 0,0 c 0,15.653 -12.7,28.344 -28.35,28.344 -15.65,0 -28.35,-12.691 -28.35,-28.344 0,-15.652 12.7,-28.347 28.35,-28.347 15.65,0 28.35,12.695 28.35,28.347"
         style="fill:#a0a0a0;fill-opacity:1;fill-rule:nonzero;stroke:none"
         id="path3387"
         inkscape:connector-curvature="0" /><path
         d="m 1870.87,425.195 0,0 c 0,15.653 -12.7,28.348 -28.35,28.348 -15.65,0 -28.35,-12.695 -28.35,-28.348 0,-15.652 12.7,-28.343 28.35,-28.343 15.65,0 28.35,12.691 28.35,28.343"
         style="fill:#a0a0a0;fill-opacity:1;fill-rule:nonzero;stroke:none"
         id="path3389"
         inkscape:connector-curvature="0" /><path
         d="m 1870.87,708.66 0,0 c 0,15.652 -12.7,28.348 -28.35,28.348 -15.65,0 -28.35,-12.696 -28.35,-28.348 0,-15.652 12.7,-28.344 28.35,-28.344 15.65,0 28.35,12.692 28.35,28.344"
         style="fill:#a0a0a0;fill-opacity:1;fill-rule:nonzero;stroke:none"
         id="path3391"
         inkscape:connector-curvature="0" /><path
         d="m 1870.87,992.125 0,0 c 0,15.655 -12.7,28.345 -28.35,28.345 -15.65,0 -28.35,-12.69 -28.35,-28.345 0,-15.652 12.7,-28.344 28.35,-28.344 15.65,0 28.35,12.692 28.35,28.344"
         style="fill:#a0a0a0;fill-opacity:1;fill-rule:nonzero;stroke:none"
         id="path3393"
         inkscape:connector-curvature="0" /><path
         d="m 1870.87,1275.59 0,0 c 0,15.65 -12.7,28.35 -28.35,28.35 -15.65,0 -28.35,-12.7 -28.35,-28.35 0,-15.65 12.7,-28.34 28.35,-28.34 15.65,0 28.35,12.69 28.35,28.34"
         style="fill:#a0a0a0;fill-opacity:1;fill-rule:nonzero;stroke:none"
         id="path3395"
         inkscape:connector-curvature="0" /><path
         d="m 2154.33,141.734 0,0 c 0,15.653 -12.69,28.344 -28.35,28.344 -15.65,0 -28.34,-12.691 -28.34,-28.344 0,-15.652 12.69,-28.347 28.34,-28.347 15.66,0 28.35,12.695 28.35,28.347"
         style="fill:#a0a0a0;fill-opacity:1;fill-rule:nonzero;stroke:none"
         id="path3397"
         inkscape:connector-curvature="0" /><path
         d="m 2154.33,425.195 0,0 c 0,15.653 -12.69,28.348 -28.35,28.348 -15.65,0 -28.34,-12.695 -28.34,-28.348 0,-15.652 12.69,-28.343 28.34,-28.343 15.66,0 28.35,12.691 28.35,28.343"
         style="fill:#a0a0a0;fill-opacity:1;fill-rule:nonzero;stroke:none"
         id="path3399"
         inkscape:connector-curvature="0" /><path
         d="m 2154.33,708.66 0,0 c 0,15.652 -12.69,28.348 -28.35,28.348 -15.65,0 -28.34,-12.696 -28.34,-28.348 0,-15.652 12.69,-28.344 28.34,-28.344 15.66,0 28.35,12.692 28.35,28.344"
         style="fill:#a0a0a0;fill-opacity:1;fill-rule:nonzero;stroke:none"
         id="path3401"
         inkscape:connector-curvature="0" /><path
         d="m 2154.33,992.125 0,0 c 0,15.655 -12.69,28.345 -28.35,28.345 -15.65,0 -28.34,-12.69 -28.34,-28.345 0,-15.652 12.69,-28.344 28.34,-28.344 15.66,0 28.35,12.692 28.35,28.344"
         style="fill:#a0a0a0;fill-opacity:1;fill-rule:nonzero;stroke:none"
         id="path3403"
         inkscape:connector-curvature="0" /><path
         d="m 2154.33,1275.59 0,0 c 0,15.65 -12.69,28.35 -28.35,28.35 -15.65,0 -28.34,-12.7 -28.34,-28.35 0,-15.65 12.69,-28.34 28.34,-28.34 15.66,0 28.35,12.69 28.35,28.34"
         style="fill:#a0a0a0;fill-opacity:1;fill-rule:nonzero;stroke:none"
         id="path3405"
         inkscape:connector-curvature="0" /><path
         d="m 2437.8,141.734 0,0 c 0,15.653 -12.7,28.344 -28.35,28.344 -15.65,0 -28.35,-12.691 -28.35,-28.344 0,-15.652 12.7,-28.347 28.35,-28.347 15.65,0 28.35,12.695 28.35,28.347"
         style="fill:#a0a0a0;fill-opacity:1;fill-rule:nonzero;stroke:none"
         id="path3407"
         inkscape:connector-curvature="0" /><path
         d="m 2437.8,425.195 0,0 c 0,15.653 -12.7,28.348 -28.35,28.348 -15.65,0 -28.35,-12.695 -28.35,-28.348 0,-15.652 12.7,-28.343 28.35,-28.343 15.65,0 28.35,12.691 28.35,28.343"
         style="fill:#a0a0a0;fill-opacity:1;fill-rule:nonzero;stroke:none"
         id="path3409"
         inkscape:connector-curvature="0" /><path
         d="m 2437.8,708.66 0,0 c 0,15.652 -12.7,28.348 -28.35,28.348 -15.65,0 -28.35,-12.696 -28.35,-28.348 0,-15.652 12.7,-28.344 28.35,-28.344 15.65,0 28.35,12.692 28.35,28.344"
         style="fill:#a0a0a0;fill-opacity:1;fill-rule:nonzero;stroke:none"
         id="path3411"
         inkscape:connector-curvature="0" /><path
         d="m 2437.8,992.125 0,0 c 0,15.655 -12.7,28.345 -28.35,28.345 -15.65,0 -28.35,-12.69 -28.35,-28.345 0,-15.652 12.7,-28.344 28.35,-28.344 15.65,0 28.35,12.692 28.35,28.344"
         style="fill:#a0a0a0;fill-opacity:1;fill-rule:nonzero;stroke:none"
         id="path3413"
         inkscape:connector-curvature="0" /><path
         d="m 2437.8,1275.59 0,0 c 0,15.65 -12.7,28.35 -28.35,28.35 -15.65,0 -28.35,-12.7 -28.35,-28.35 0,-15.65 12.7,-28.34 28.35,-28.34 15.65,0 28.35,12.69 28.35,28.34"
         style="fill:#a0a0a0;fill-opacity:1;fill-rule:nonzero;stroke:none"
         id="path3415"
         inkscape:connector-curvature="0" /><path
         d="m 2721.26,141.734 0,0 c 0,15.653 -12.69,28.344 -28.35,28.344 -15.65,0 -28.34,-12.691 -28.34,-28.344 0,-15.652 12.69,-28.347 28.34,-28.347 15.66,0 28.35,12.695 28.35,28.347"
         style="fill:#a0a0a0;fill-opacity:1;fill-rule:nonzero;stroke:none"
         id="path3417"
         inkscape:connector-curvature="0" /><path
         d="m 2721.26,425.195 0,0 c 0,15.653 -12.69,28.348 -28.35,28.348 -15.65,0 -28.34,-12.695 -28.34,-28.348 0,-15.652 12.69,-28.343 28.34,-28.343 15.66,0 28.35,12.691 28.35,28.343"
         style="fill:#a0a0a0;fill-opacity:1;fill-rule:nonzero;stroke:none"
         id="path3419"
         inkscape:connector-curvature="0" /><path
         d="m 2721.26,708.66 0,0 c 0,15.652 -12.69,28.348 -28.35,28.348 -15.65,0 -28.34,-12.696 -28.34,-28.348 0,-15.652 12.69,-28.344 28.34,-28.344 15.66,0 28.35,12.692 28.35,28.344"
         style="fill:#a0a0a0;fill-opacity:1;fill-rule:nonzero;stroke:none"
         id="path3421"
         inkscape:connector-curvature="0" /><path
         d="m 2721.26,992.125 0,0 c 0,15.655 -12.69,28.345 -28.35,28.345 -15.65,0 -28.34,-12.69 -28.34,-28.345 0,-15.652 12.69,-28.344 28.34,-28.344 15.66,0 28.35,12.692 28.35,28.344"
         style="fill:#a0a0a0;fill-opacity:1;fill-rule:nonzero;stroke:none"
         id="path3423"
         inkscape:connector-curvature="0" /><path
         d="m 2721.26,1275.59 0,0 c 0,15.65 -12.69,28.35 -28.35,28.35 -15.65,0 -28.34,-12.7 -28.34,-28.35 0,-15.65 12.69,-28.34 28.34,-28.34 15.66,0 28.35,12.69 28.35,28.34"
         style="fill:#a0a0a0;fill-opacity:1;fill-rule:nonzero;stroke:none"
         id="path3425"
         inkscape:connector-curvature="0" /><path
         d="m 3004.73,141.734 0,0 c 0,15.653 -12.7,28.344 -28.35,28.344 -15.65,0 -28.35,-12.691 -28.35,-28.344 0,-15.652 12.7,-28.347 28.35,-28.347 15.65,0 28.35,12.695 28.35,28.347"
         style="fill:#a0a0a0;fill-opacity:1;fill-rule:nonzero;stroke:none"
         id="path3427"
         inkscape:connector-curvature="0" /><path
         d="m 3004.73,425.195 0,0 c 0,15.653 -12.7,28.348 -28.35,28.348 -15.65,0 -28.35,-12.695 -28.35,-28.348 0,-15.652 12.7,-28.343 28.35,-28.343 15.65,0 28.35,12.691 28.35,28.343"
         style="fill:#a0a0a0;fill-opacity:1;fill-rule:nonzero;stroke:none"
         id="path3429"
         inkscape:connector-curvature="0" /><path
         d="m 3004.73,708.66 0,0 c 0,15.652 -12.7,28.348 -28.35,28.348 -15.65,0 -28.35,-12.696 -28.35,-28.348 0,-15.652 12.7,-28.344 28.35,-28.344 15.65,0 28.35,12.692 28.35,28.344"
         style="fill:#a0a0a0;fill-opacity:1;fill-rule:nonzero;stroke:none"
         id="path3431"
         inkscape:connector-curvature="0" /><path
         d="m 3004.73,992.125 0,0 c 0,15.655 -12.7,28.345 -28.35,28.345 -15.65,0 -28.35,-12.69 -28.35,-28.345 0,-15.652 12.7,-28.344 28.35,-28.344 15.65,0 28.35,12.692 28.35,28.344"
         style="fill:#a0a0a0;fill-opacity:1;fill-rule:nonzero;stroke:none"
         id="path3433"
         inkscape:connector-curvature="0" /><path
         d="m 3004.73,1275.59 0,0 c 0,15.65 -12.7,28.35 -28.35,28.35 -15.65,0 -28.35,-12.7 -28.35,-28.35 0,-15.65 12.7,-28.34 28.35,-28.34 15.65,0 28.35,12.69 28.35,28.34"
         style="fill:#a0a0a0;fill-opacity:1;fill-rule:nonzero;stroke:none"
         id="path3435"
         inkscape:connector-curvature="0" /><path
         d="m 3288.19,141.734 0,0 c 0,15.653 -12.69,28.344 -28.35,28.344 -15.65,0 -28.34,-12.691 -28.34,-28.344 0,-15.652 12.69,-28.347 28.34,-28.347 15.66,0 28.35,12.695 28.35,28.347"
         style="fill:#a0a0a0;fill-opacity:1;fill-rule:nonzero;stroke:none"
         id="path3437"
         inkscape:connector-curvature="0" /><path
         d="m 3288.19,425.195 0,0 c 0,15.653 -12.69,28.348 -28.35,28.348 -15.65,0 -28.34,-12.695 -28.34,-28.348 0,-15.652 12.69,-28.343 28.34,-28.343 15.66,0 28.35,12.691 28.35,28.343"
         style="fill:#a0a0a0;fill-opacity:1;fill-rule:nonzero;stroke:none"
         id="path3439"
         inkscape:connector-curvature="0" /><path
         d="m 3288.19,708.66 0,0 c 0,15.652 -12.69,28.348 -28.35,28.348 -15.65,0 -28.34,-12.696 -28.34,-28.348 0,-15.652 12.69,-28.344 28.34,-28.344 15.66,0 28.35,12.692 28.35,28.344"
         style="fill:#a0a0a0;fill-opacity:1;fill-rule:nonzero;stroke:none"
         id="path3441"
         inkscape:connector-curvature="0" /><path
         d="m 3288.19,992.125 0,0 c 0,15.655 -12.69,28.345 -28.35,28.345 -15.65,0 -28.34,-12.69 -28.34,-28.345 0,-15.652 12.69,-28.344 28.34,-28.344 15.66,0 28.35,12.692 28.35,28.344"
         style="fill:#a0a0a0;fill-opacity:1;fill-rule:nonzero;stroke:none"
         id="path3443"
         inkscape:connector-curvature="0" /><path
         d="m 3288.19,1275.59 0,0 c 0,15.65 -12.69,28.35 -28.35,28.35 -15.65,0 -28.34,-12.7 -28.34,-28.35 0,-15.65 12.69,-28.34 28.34,-28.34 15.66,0 28.35,12.69 28.35,28.34"
         style="fill:#a0a0a0;fill-opacity:1;fill-rule:nonzero;stroke:none"
         id="path3445"
         inkscape:connector-curvature="0" /><path
         d="m 425.195,425.195 187.934,0"
         style="fill:none;stroke:#000000;stroke-width:10;stroke-linecap:butt;stroke-linejoin:miter;stroke-miterlimit:10;stroke-opacity:1;stroke-dasharray:none"
         id="path3447"
         inkscape:connector-curvature="0" /><path
         d="m 613.129,395.645 95.531,29.55 -95.531,29.555"
         style="fill:#000000;fill-opacity:1;fill-rule:nonzero;stroke:none"
         id="path3449"
         inkscape:connector-curvature="0" /><path
         d="m 613.129,395.645 95.531,29.55 -95.531,29.555 0,-59.105 z"
         style="fill:none;stroke:#000000;stroke-width:10;stroke-linecap:butt;stroke-linejoin:miter;stroke-miterlimit:10;stroke-opacity:1;stroke-dasharray:none"
         id="path3451"
         inkscape:connector-curvature="0" /><path
         d="M 425.195,425.195 641.109,641.109"
         style="fill:none;stroke:#000000;stroke-width:10;stroke-linecap:butt;stroke-linejoin:miter;stroke-miterlimit:10;stroke-opacity:1;stroke-dasharray:none"
         id="path3453"
         inkscape:connector-curvature="0" /><path
         d="M 662.004,620.211 708.66,708.66 620.211,662.004"
         style="fill:#000000;fill-opacity:1;fill-rule:nonzero;stroke:none"
         id="path3455"
         inkscape:connector-curvature="0" /><path
         d="m 662.004,620.211 46.656,88.449 -88.449,-46.656 41.793,-41.793 z"
         style="fill:none;stroke:#000000;stroke-width:10;stroke-linecap:butt;stroke-linejoin:miter;stroke-miterlimit:10;stroke-opacity:1;stroke-dasharray:none"
         id="path3457"
         inkscape:connector-curvature="0" /><path
         d="m 1275.59,425.195 187.93,0"
         style="fill:none;stroke:#000000;stroke-width:10;stroke-linecap:butt;stroke-linejoin:miter;stroke-miterlimit:10;stroke-opacity:1;stroke-dasharray:none"
         id="path3459"
         inkscape:connector-curvature="0" /><path
         d="m 1463.52,395.645 95.53,29.55 -95.53,29.555"
         style="fill:#000000;fill-opacity:1;fill-rule:nonzero;stroke:none"
         id="path3461"
         inkscape:connector-curvature="0" /><path
         d="m 1463.52,395.645 95.53,29.55 -95.53,29.555 0,-59.105 z"
         style="fill:none;stroke:#000000;stroke-width:10;stroke-linecap:butt;stroke-linejoin:miter;stroke-miterlimit:10;stroke-opacity:1;stroke-dasharray:none"
         id="path3463"
         inkscape:connector-curvature="0" /><path
         d="M 1275.59,425.195 1491.5,641.109"
         style="fill:none;stroke:#000000;stroke-width:10;stroke-linecap:butt;stroke-linejoin:miter;stroke-miterlimit:10;stroke-opacity:1;stroke-dasharray:none"
         id="path3465"
         inkscape:connector-curvature="0" /><path
         d="m 1512.4,620.211 46.65,88.449 -88.44,-46.656"
         style="fill:#000000;fill-opacity:1;fill-rule:nonzero;stroke:none"
         id="path3467"
         inkscape:connector-curvature="0" /><path
         d="m 1512.4,620.211 46.65,88.449 -88.44,-46.656 41.79,-41.793 z"
         style="fill:none;stroke:#000000;stroke-width:10;stroke-linecap:butt;stroke-linejoin:miter;stroke-miterlimit:10;stroke-opacity:1;stroke-dasharray:none"
         id="path3469"
         inkscape:connector-curvature="0" /><path
         d="m 1275.59,425.195 481.48,240.743"
         style="fill:none;stroke:#000000;stroke-width:10;stroke-linecap:butt;stroke-linejoin:miter;stroke-miterlimit:10;stroke-opacity:1;stroke-dasharray:none"
         id="path3471"
         inkscape:connector-curvature="0" /><path
         d="m 1770.29,639.504 72.23,69.156 -98.66,-16.289"
         style="fill:#000000;fill-opacity:1;fill-rule:nonzero;stroke:none"
         id="path3473"
         inkscape:connector-curvature="0" /><path
         d="m 1770.29,639.504 72.23,69.156 -98.66,-16.289 26.43,-52.867 z"
         style="fill:none;stroke:#000000;stroke-width:10;stroke-linecap:butt;stroke-linejoin:miter;stroke-miterlimit:10;stroke-opacity:1;stroke-dasharray:none"
         id="path3475"
         inkscape:connector-curvature="0" /><path
         d="m 2125.98,425.195 187.93,0"
         style="fill:none;stroke:#000000;stroke-width:10;stroke-linecap:butt;stroke-linejoin:miter;stroke-miterlimit:10;stroke-opacity:1;stroke-dasharray:none"
         id="path3477"
         inkscape:connector-curvature="0" /><path
         d="m 2313.91,395.645 95.54,29.55 -95.54,29.555"
         style="fill:#000000;fill-opacity:1;fill-rule:nonzero;stroke:none"
         id="path3479"
         inkscape:connector-curvature="0" /><path
         d="m 2313.91,395.645 95.54,29.55 -95.54,29.555 0,-59.105 z"
         style="fill:none;stroke:#000000;stroke-width:10;stroke-linecap:butt;stroke-linejoin:miter;stroke-miterlimit:10;stroke-opacity:1;stroke-dasharray:none"
         id="path3481"
         inkscape:connector-curvature="0" /><path
         d="m 2125.98,425.195 215.91,215.914"
         style="fill:none;stroke:#000000;stroke-width:10;stroke-linecap:butt;stroke-linejoin:miter;stroke-miterlimit:10;stroke-opacity:1;stroke-dasharray:none"
         id="path3483"
         inkscape:connector-curvature="0" /><path
         d="M 2362.79,620.211 2409.45,708.66 2321,662.004"
         style="fill:#000000;fill-opacity:1;fill-rule:nonzero;stroke:none"
         id="path3485"
         inkscape:connector-curvature="0" /><path
         d="m 2362.79,620.211 46.66,88.449 -88.45,-46.656 41.79,-41.793 z"
         style="fill:none;stroke:#000000;stroke-width:10;stroke-linecap:butt;stroke-linejoin:miter;stroke-miterlimit:10;stroke-opacity:1;stroke-dasharray:none"
         id="path3487"
         inkscape:connector-curvature="0" /><path
         d="m 2125.98,425.195 481.48,240.743"
         style="fill:none;stroke:#000000;stroke-width:10;stroke-linecap:butt;stroke-linejoin:miter;stroke-miterlimit:10;stroke-opacity:1;stroke-dasharray:none"
         id="path3489"
         inkscape:connector-curvature="0" /><path
         d="m 2620.68,639.504 72.23,69.156 -98.66,-16.289"
         style="fill:#000000;fill-opacity:1;fill-rule:nonzero;stroke:none"
         id="path3491"
         inkscape:connector-curvature="0" /><path
         d="m 2620.68,639.504 72.23,69.156 -98.66,-16.289 26.43,-52.867 z"
         style="fill:none;stroke:#000000;stroke-width:10;stroke-linecap:butt;stroke-linejoin:miter;stroke-miterlimit:10;stroke-opacity:1;stroke-dasharray:none"
         id="path3493"
         inkscape:connector-curvature="0" /><path
         d="m 2125.98,425.195 759.77,253.258"
         style="fill:none;stroke:#000000;stroke-width:10;stroke-linecap:butt;stroke-linejoin:miter;stroke-miterlimit:10;stroke-opacity:1;stroke-dasharray:none"
         id="path3495"
         inkscape:connector-curvature="0" /><path
         d="m 2895.09,650.414 81.29,58.246 -99.98,-2.172"
         style="fill:#000000;fill-opacity:1;fill-rule:nonzero;stroke:none"
         id="path3497"
         inkscape:connector-curvature="0" /><path
         d="m 2895.09,650.414 81.29,58.246 -99.98,-2.172 18.69,-56.074 z"
         style="fill:none;stroke:#000000;stroke-width:10;stroke-linecap:butt;stroke-linejoin:miter;stroke-miterlimit:10;stroke-opacity:1;stroke-dasharray:none"
         id="path3499"
         inkscape:connector-curvature="0" /><path
         d="m 2125.98,425.195 770.91,513.938"
         style="fill:none;stroke:#000000;stroke-width:10;stroke-linecap:butt;stroke-linejoin:miter;stroke-miterlimit:10;stroke-opacity:1;stroke-dasharray:none"
         id="path3501"
         inkscape:connector-curvature="0" /><path
         d="m 2913.28,914.547 63.1,77.578 -95.88,-28.402"
         style="fill:#000000;fill-opacity:1;fill-rule:nonzero;stroke:none"
         id="path3503"
         inkscape:connector-curvature="0" /><path
         d="m 2913.28,914.547 63.1,77.578 -95.88,-28.402 32.78,-49.176 z"
         style="fill:none;stroke:#000000;stroke-width:10;stroke-linecap:butt;stroke-linejoin:miter;stroke-miterlimit:10;stroke-opacity:1;stroke-dasharray:none"
         id="path3505"
         inkscape:connector-curvature="0" /><path
         d="M 2125.98,425.195 3183.41,1218.27"
         style="fill:none;stroke:#000000;stroke-width:10;stroke-linecap:butt;stroke-linejoin:miter;stroke-miterlimit:10;stroke-opacity:1;stroke-dasharray:none"
         id="path3507"
         inkscape:connector-curvature="0" /><path
         d="m 3201.15,1194.63 58.69,80.96 -94.16,-33.68"
         style="fill:#000000;fill-opacity:1;fill-rule:nonzero;stroke:none"
         id="path3509"
         inkscape:connector-curvature="0" /><path
         d="m 3201.15,1194.63 58.69,80.96 -94.16,-33.68 35.47,-47.28 z"
         style="fill:none;stroke:#000000;stroke-width:10;stroke-linecap:butt;stroke-linejoin:miter;stroke-miterlimit:10;stroke-opacity:1;stroke-dasharray:none"
         id="path3511"
         inkscape:connector-curvature="0" /><path
         d="M 2125.98,425.195 3167.16,685.492"
         style="fill:none;stroke:#000000;stroke-width:10;stroke-linecap:butt;stroke-linejoin:miter;stroke-miterlimit:10;stroke-opacity:1;stroke-dasharray:none"
         id="path3513"
         inkscape:connector-curvature="0" /><path
         d="m 3174.33,656.82 85.51,51.84 -99.84,5.5"
         style="fill:#000000;fill-opacity:1;fill-rule:nonzero;stroke:none"
         id="path3515"
         inkscape:connector-curvature="0" /><path
         d="m 3174.33,656.82 85.51,51.84 -99.84,5.5 14.33,-57.34 z"
         style="fill:none;stroke:#000000;stroke-width:10;stroke-linecap:butt;stroke-linejoin:miter;stroke-miterlimit:10;stroke-opacity:1;stroke-dasharray:none"
         id="path3517"
         inkscape:connector-curvature="0" /></g></g></svg>