<?xml version="1.0" encoding="UTF-8" standalone="no"?>
<!-- Created with Inkscape (http://www.inkscape.org/) -->

<svg
   xmlns:dc="http://purl.org/dc/elements/1.1/"
   xmlns:cc="http://creativecommons.org/ns#"
   xmlns:rdf="http://www.w3.org/1999/02/22-rdf-syntax-ns#"
   xmlns:svg="http://www.w3.org/2000/svg"
   xmlns="http://www.w3.org/2000/svg"
   xmlns:sodipodi="http://sodipodi.sourceforge.net/DTD/sodipodi-0.dtd"
   xmlns:inkscape="http://www.inkscape.org/namespaces/inkscape"
   id="svg28064"
   version="1.1"
   inkscape:version="0.48.2 r9819"
   width="340.77999"
   height="409.94038"
   xml:space="preserve"
   sodipodi:docname="step2.svg"><metadata
     id="metadata28070"><rdf:RDF><cc:Work
         rdf:about=""><dc:format>image/svg+xml</dc:format><dc:type
           rdf:resource="http://purl.org/dc/dcmitype/StillImage" /><dc:title></dc:title></cc:Work></rdf:RDF></metadata><defs
     id="defs28068" /><sodipodi:namedview
     pagecolor="#ffffff"
     bordercolor="#666666"
     borderopacity="1"
     objecttolerance="10"
     gridtolerance="10"
     guidetolerance="10"
     inkscape:pageopacity="0"
     inkscape:pageshadow="2"
     inkscape:window-width="1349"
     inkscape:window-height="1030"
     id="namedview28066"
     showgrid="false"
     inkscape:zoom="1.3074726"
     inkscape:cx="82.543377"
     inkscape:cy="204.96936"
     inkscape:window-x="369"
     inkscape:window-y="12"
     inkscape:window-maximized="0"
     inkscape:current-layer="g28072" /><g
     id="g28072"
     inkscape:groupmode="layer"
     inkscape:label="algoMid"
     transform="matrix(1.25,0,0,-1.25,0,409.94038)"><path
       inkscape:connector-curvature="0"
       id="path28076"
       style="fill:#1ce506;fill-opacity:0.41176501;fill-rule:nonzero;stroke:none"
       d="m 135.422,327.952 20,0 0,-157.223 -20,0 0,157.223 z" /><path
       inkscape:connector-curvature="0"
       id="path28078"
       style="fill:none;stroke:#969696;stroke-width:0.80000001;stroke-linecap:butt;stroke-linejoin:miter;stroke-miterlimit:4;stroke-opacity:1;stroke-dasharray:none"
       d="m 146.277,5.511 0,316.074" /><path
       inkscape:connector-curvature="0"
       id="path28080"
       style="fill:#00acf0;fill-opacity:0.41176501;fill-rule:nonzero;stroke:none"
       d="m 135.082,170.343 20,0 0,-170.344 -20,0 0,170.344 z" /><path
       inkscape:connector-curvature="0"
       id="path28114"
       style="fill:#1ce506;fill-opacity:1;fill-rule:nonzero;stroke:none"
       d="m 33.128436,239.66156 c 0,-2.051 -1.664,-3.711 -3.715,-3.711 -2.051,0 -3.715,1.66 -3.715,3.711 0,2.055 1.664,3.715 3.715,3.715 2.047,0 3.707,-1.652 3.715,-3.699" /><path
       inkscape:connector-curvature="0"
       id="path28116"
       style="fill:#0092eb;fill-opacity:1;fill-rule:nonzero;stroke:none"
       d="m 63.366308,56.426521 c 0,-2.05 -1.664,-3.714 -3.715,-3.714 -2.051,0 -3.715,1.664 -3.715,3.714 0,2.051 1.664,3.715 3.715,3.715 2.047,0 3.707,-1.656 3.715,-3.703" /><path
       inkscape:connector-curvature="0"
       id="path28116-7"
       style="fill:#eb476b;fill-opacity:1;fill-rule:nonzero;stroke:none"
       d="m 22.071026,162.75627 c 0,-2.05 -1.664,-3.714 -3.715,-3.714 -2.051,0 -3.715,1.664 -3.715,3.714 0,2.051 1.664,3.715 3.715,3.715 2.047,0 3.707,-1.656 3.715,-3.703" /><path
       style="fill:none;stroke:#ff0000;stroke-width:1px;stroke-linecap:butt;stroke-linejoin:miter;stroke-opacity:1;fill-opacity:1"
       d="m 12.23735,330.39759 71.1296,-67.30543 24.4747,-51.2439 43.59556,-9.94285 64.24609,-10.70768 54.30324,14.53185 52.77358,-29.82854"
       id="path28731"
       inkscape:connector-curvature="0"
       transform="matrix(0.8,0,0,-0.8,0,327.9523)" /><path
       style="fill:none;stroke:#ff0000;stroke-width:1px;stroke-linecap:butt;stroke-linejoin:miter;stroke-opacity:1"
       d="M 108.60648,212.61309 81.837281,183.54939 57.36258,176.66588 17.591191,146.83733 -7.648344,111.65495"
       id="path28733"
       inkscape:connector-curvature="0"
       transform="matrix(0.8,0,0,-0.8,0,327.9523)" /></g></svg>